<svg id="Layer_1" data-name="Layer 1" xmlns="http://www.w3.org/2000/svg" viewBox="0 0 1417.32 1092.14"><defs><style>.cls-1{fill:#50ad55;}</style></defs><title>piggy_ed</title><path class="cls-1" d="M1389,880.24a31.47,31.47,0,0,0,28.32-31.47V562.39A31.47,31.47,0,0,0,1389,530.92l-124.31-14.16a490.93,490.93,0,0,0-138.47-163.64l6.29-64.51c6.29-58.22,7.87-77.1,6.29-88.12A40.91,40.91,0,0,0,1095,162.7l-.24,0c-70.81-1.57-210.85,66.09-234.45,77.1h-7.87c-25.18-3.15-77.1-9.44-102.28-9.44-199.84,0-382.36,89.69-483.07,236h-1.57A136.89,136.89,0,0,1,72,272.87a15.74,15.74,0,0,0-22-22A168.36,168.36,0,0,0,232.47,526.2l-4.72,7.87A391.8,391.8,0,0,0,186.84,682v22a429.57,429.57,0,0,0,86.54,254.91,184.1,184.1,0,0,0,14.16,231.31,199.83,199.83,0,0,0,143.19,64.51H437a203,203,0,0,0,138.47-55.07l34.62-33a640.42,640.42,0,0,0,237.6,6.29l25.18,23.6a207.7,207.7,0,0,0,273.79,11A182.53,182.53,0,0,0,1197,995.1a490.94,490.94,0,0,0,67.66-100.7Zm-149.48-6.29a459.47,459.47,0,0,1-70.81,105.42,20.46,20.46,0,0,0-3.15,22,151.06,151.06,0,0,1-39.34,182.53,179.38,179.38,0,0,1-232.88-9.44L865,1147.73a20.46,20.46,0,0,0-17.31-4.72,607.37,607.37,0,0,1-236-6.29,20.46,20.46,0,0,0-18.88,4.72l-39.34,36.19a171.51,171.51,0,0,1-118,45.63h-6.29a168.36,168.36,0,0,1-119.59-53.5,152.63,152.63,0,0,1-7.87-198.26,20.46,20.46,0,0,0,0-25.18,399.67,399.67,0,0,1-85-242.32V683.55A360.33,360.33,0,0,1,254.5,548.23l22-40.91c91.26-152.63,272.22-247,473.62-247,23.6,0,75.53,6.29,97.56,9.44h23.6c18.88-9.44,160.5-75.53,221.86-75.53,12.59,0,12.59,6.29,12.59,9.44a530.26,530.26,0,0,1-3.15,81.82l-7.87,70.81a20.46,20.46,0,0,0,7.87,18.88,459.46,459.46,0,0,1,136.89,162.07,20.46,20.46,0,0,0,17.31,11l129,14.16h0v288l-129,14.16a20.46,20.46,0,0,0-17.31,11Z" transform="translate(0 -162.59)"/><path class="cls-1" d="M979.89,543.51a61.37,61.37,0,1,0,61.37,61.37,61.37,61.37,0,0,0-61.37-61.37Zm0,91.26a29.12,29.12,0,1,0,0-1.57Z" transform="translate(0 -162.59)"/></svg>