<svg xmlns="http://www.w3.org/2000/svg" data-name="Layer 1" viewBox="0 0 100 125" x="0px" y="0px"><title>13</title><g data-name="Group"><path data-name="Compound Path" d="M93.2,60.8a2,2,0,0,0,1.8-2V40.6a2,2,0,0,0-1.8-2l-7.9-.9a31.2,31.2,0,0,0-8.8-10.4l.4-4.1c.4-3.7.5-4.9.4-5.6a2.6,2.6,0,0,0-2.8-2.4c-4.5-.1-13.4,4.2-14.9,4.9h-.5c-1.6-.2-4.9-.6-6.5-.6-12.7,0-24.3,5.7-30.7,15h-.1A8.7,8.7,0,0,1,9.5,22.2a1,1,0,0,0-1.4-1.4A10.7,10.7,0,0,0,19.7,38.3l-.3.5a24.9,24.9,0,0,0-2.6,9.4c0,.5,0,.9,0,1.4a27.3,27.3,0,0,0,5.5,16.2,11.7,11.7,0,0,0,.9,14.7,12.7,12.7,0,0,0,9.1,4.1h.4a12.9,12.9,0,0,0,8.8-3.5l2.2-2.1a40.7,40.7,0,0,0,15.1.4l1.6,1.5a13.2,13.2,0,0,0,17.4.7A11.6,11.6,0,0,0,81,68.1a31.2,31.2,0,0,0,4.3-6.4Zm-9.5-.4a29.2,29.2,0,0,1-4.5,6.7,1.3,1.3,0,0,0-.2,1.4,9.6,9.6,0,0,1-2.5,11.6,11.4,11.4,0,0,1-14.8-.6l-1.8-1.7a1.3,1.3,0,0,0-1.1-.3,38.6,38.6,0,0,1-15-.4,1.3,1.3,0,0,0-1.2.3l-2.5,2.3a10.9,10.9,0,0,1-7.5,2.9h-.4a10.7,10.7,0,0,1-7.6-3.4,9.7,9.7,0,0,1-.5-12.6,1.3,1.3,0,0,0,0-1.6,25.4,25.4,0,0,1-5.4-15.4c0-.4,0-.9,0-1.3a22.9,22.9,0,0,1,2.4-8.6l1.4-2.6c5.8-9.7,17.3-15.7,30.1-15.7,1.5,0,4.8.4,6.2.6h1.5c1.2-.6,10.2-4.8,14.1-4.8.8,0,.8.4.8.6A33.7,33.7,0,0,1,75,23l-.5,4.5a1.3,1.3,0,0,0,.5,1.2A29.2,29.2,0,0,1,83.7,39a1.3,1.3,0,0,0,1.1.7l8.2.9h0V58.9l-8.2.9A1.3,1.3,0,0,0,83.7,60.5Z"/><path data-name="Compound Path" d="M67.2,39.4a3.9,3.9,0,1,0,3.9,3.9A3.9,3.9,0,0,0,67.2,39.4Zm0,5.8a1.9,1.9,0,1,1,1.9-1.9A1.9,1.9,0,0,1,67.2,45.1Z"/></g></svg>